<svg width="100" height="100" viewBox="0 0 100 100" fill="none" xmlns="http://www.w3.org/2000/svg">
<g clip-path="url(#clip0)">
<path d="M95.1139 33.3334H94.3267C86.941 16.6905 70.2684 5.04752 50.9182 5.04752C43.7881 5.04752 37.027 6.63662 30.9531 9.46521L31.0253 13.0598L31.0794 15.7197C31.3614 15.9051 31.6124 16.1248 31.8829 16.3215C33.1472 15.6542 34.4508 15.054 35.789 14.5194C35.0577 15.5378 34.3623 16.6364 33.6981 17.7975C35.4708 19.4176 36.9582 21.3051 38.0831 23.4024C40.784 17.8106 44.1654 14.0273 47.6401 12.5399V33.3332H40.5756C40.505 34.0645 40.205 34.7567 39.6918 35.2913C39.09 35.9193 38.2619 36.2802 37.3928 36.2982L33.8688 36.3688L27.1931 36.5033L25.5418 36.5362C25.5434 36.5657 25.5434 36.5937 25.545 36.6232L25.5876 38.755L25.6106 39.893H26.6389C26.1928 43.0201 25.9092 46.2835 25.8059 49.6549L25.9895 58.7726L25.9961 59.0891C26.1438 61.1601 26.3585 63.1854 26.6407 65.1566H26.1192L26.124 65.4386C26.1388 66.1437 25.9239 66.8359 25.514 67.4098L25.3417 67.6525L22.8605 71.1291C22.7031 71.3504 22.5177 71.5441 22.316 71.7162H27.8554C29.5952 79.2546 32.337 85.7173 35.7906 90.5302C26.7746 86.9275 19.3297 80.2138 14.7972 71.7162H18.072C17.9015 71.5719 17.7408 71.4144 17.5997 71.234L15.4417 68.4524L14.799 67.6243C14.3661 67.0667 14.125 66.3846 14.1103 65.6793L14.1004 65.1562H12.0077C10.7122 61.1747 10.0039 56.9323 10.0039 52.5245C10.0039 48.1183 10.7124 43.8743 12.0077 39.8944H13.5934L13.5327 36.8657C13.5327 36.8362 13.5327 36.8082 13.5327 36.7787L13.1572 36.787L9.58726 36.8574L6.71913 36.9149L6.08446 36.928C4.37895 41.8163 3.43945 47.0606 3.43945 52.5231C3.43945 58.6283 4.61035 64.4612 6.71913 69.8285V71.7143H7.50632C14.8938 88.3572 31.5662 100 50.9166 100C70.267 100 86.9392 88.3572 94.3269 71.7143H95.1141V69.8285C97.2229 64.4628 98.3937 58.6283 98.3937 52.5231C98.3937 46.4178 97.2229 40.5849 95.1141 35.2177V33.3334H95.1139ZM54.1979 39.8928H68.5958C69.1896 43.7956 69.519 48.0215 69.519 52.5229C69.519 57.0259 69.1877 61.2517 68.5958 65.1546H54.1979V39.8928ZM87.0409 33.3334H73.9827C72.2429 25.795 69.5026 19.3323 66.0491 14.5194C75.0634 18.122 82.5084 24.8355 87.0409 33.3334ZM67.2775 71.7141C64.488 82.7701 59.4488 90.2592 54.1963 92.5074V71.7141H67.2775ZM66.0475 90.5298C69.501 85.7169 72.2429 79.2542 73.9811 71.7158H87.0409C82.5084 80.2134 75.0634 86.9271 66.0475 90.5298ZM75.198 65.1548C75.7687 61.1454 76.0785 56.9161 76.0785 52.5231C76.0785 48.13 75.7687 43.9007 75.198 39.893H89.8303C91.1259 43.8729 91.8342 48.1169 91.8342 52.5231C91.8342 56.9311 91.1257 61.1733 89.8303 65.1548H75.198ZM54.1979 12.5399C59.4504 14.7865 64.4896 22.2773 67.2791 33.3332H54.1979V12.5399ZM32.3158 52.5229C32.3158 48.0215 32.6471 43.7956 33.239 39.8928H47.6369V65.1548H33.239C32.6471 61.2519 32.3158 57.0259 32.3158 52.5229ZM34.5574 71.7141H47.6385V92.5074C42.386 90.2609 37.3468 82.7717 34.5574 71.7141Z" fill="#33C960"/>
<path d="M22.5078 48.8464L22.4404 45.5191L22.3272 39.8928L22.306 38.8203L22.2633 36.6901L16.8076 36.7983L16.87 39.8928L16.878 40.319L17.0174 47.2738L17.1782 55.2598L17.3586 64.256L17.3765 65.1548L17.3864 65.6139L18.0291 66.4419L20.1874 69.2214L22.6683 65.7451L22.8422 65.504L22.834 65.1548L22.7077 58.8379L22.5078 48.8464Z" fill="#33C960"/>
<path d="M7.37678 33.6219L10.9944 33.5497L14.7217 33.4742L21.7092 33.3332L27.8816 33.2085L34.6231 33.0723L37.324 33.0183C37.2863 31.103 36.9173 29.2778 36.3238 27.5608C35.4365 24.9929 33.9854 22.7019 32.1127 20.8193C31.1009 19.8025 29.9694 18.9155 28.7396 18.1644C28.4362 17.979 28.1493 17.7708 27.8344 17.6052L27.7787 14.865L27.7032 11.131L27.5769 4.84376L32.2178 4.75036C32.1633 2.07449 26.5418 0 19.5167 0C19.2772 0 19.0361 0.00161392 18.795 0.0066574C11.4404 0.155743 5.52219 2.51892 5.57787 5.28698L10.2187 5.19358L10.4745 17.9548C5.06465 21.1165 1.47671 27.028 1.61107 33.7367L6.72093 33.6334L7.37678 33.6219Z" fill="#33C960"/>
</g>
<defs>
<clipPath id="clip0">
<rect width="100" height="100" fill="white"/>
</clipPath>
</defs>
</svg>
