<svg width="100" height="100" viewBox="0 0 100 100" fill="none" xmlns="http://www.w3.org/2000/svg">
<path d="M11.6639 60.3981C7.50073 60.3981 4.11875 63.6892 3.91397 67.8046C3.90726 67.9334 3.87598 68.0573 3.87598 68.1878C3.87598 72.4829 7.37031 75.9773 11.6655 75.9773C15.9607 75.9773 19.455 72.4829 19.455 68.1878C19.455 68.0573 19.4219 67.9334 19.417 67.8046C19.2092 63.6909 15.827 60.3981 11.6639 60.3981ZM11.6639 71.8487C9.70358 71.8487 8.09843 70.2996 8.00762 68.3609C8.02082 68.2453 8.03078 68.128 8.03728 68.0092C8.13479 66.0572 9.72674 64.5264 11.6637 64.5264C13.6006 64.5264 15.1944 66.0556 15.29 68.0092C15.2967 68.1264 15.3065 68.2404 15.3197 68.3592C15.2293 70.298 13.6241 71.8487 11.6639 71.8487Z" fill="#00FF00"/>
<path d="M63.2879 60.3981C59.1248 60.3981 55.7428 63.6892 55.538 67.8046C55.5313 67.9334 55.5 68.0573 55.5 68.1878C55.5 72.4829 58.9943 75.9773 63.2895 75.9773C67.5847 75.9773 71.079 72.4829 71.079 68.1878C71.079 68.0573 71.0459 67.9334 71.041 67.8046C70.833 63.6909 67.451 60.3981 63.2879 60.3981ZM63.2879 71.8487C61.3276 71.8487 59.7225 70.2996 59.6316 68.3609C59.6448 68.2453 59.6548 68.128 59.6613 68.0092C59.7588 66.0572 61.3508 64.5264 63.2877 64.5264C65.2248 64.5264 66.8168 66.0556 66.9141 68.0092C66.9208 68.1248 66.9305 68.2404 66.9437 68.3592C66.8547 70.298 65.248 71.8487 63.2879 71.8487Z" fill="#00FF00"/>
<path d="M96.6972 52.4251H78.3618V49.3288H90.9174C92.7405 49.3288 94.2201 47.8491 94.2201 46.026C94.2201 44.2029 92.7405 42.7232 90.9174 42.7232H78.3618V40.4525H85.5503C87.3735 40.4525 88.8531 38.9729 88.8531 37.1498C88.8531 35.3266 87.3735 33.847 85.5503 33.847H78.1489C76.935 26.6784 70.2023 24.0229 62.056 24.0229H42.862C33.857 24.0229 26.5545 27.2464 26.5545 36.2531V56.4182H23.7801V32.1757C23.7801 30.6745 22.563 29.4574 21.0619 29.4574H13.5877C12.0865 29.4574 9.93487 30.2369 8.78214 31.1981L2.08746 36.778C0.934733 37.7392 0 39.7342 0 41.2353V65.1292C0 66.4024 0.878458 67.4627 2.05922 67.7583C2.28554 62.6505 6.49986 58.5617 11.6637 58.5617C15.178 58.5617 18.2495 60.4608 19.9307 63.2813C20.7299 64.6221 21.209 66.1696 21.2715 67.8259C21.2715 67.8326 21.2715 67.8391 21.2732 67.8475H53.6932C53.8748 62.6984 58.1091 58.5617 63.301 58.5617C68.4929 58.5617 72.7288 62.6984 72.9088 67.8475H78.3618V59.0308H96.6972C98.5204 59.0308 100 57.5512 100 55.728C100 53.9049 98.5204 52.4251 96.6972 52.4251ZM17.3428 44.7609C17.3428 46.2621 16.1257 47.4792 14.6246 47.4792H7.79622C6.29508 47.4792 5.07795 46.2621 5.07795 44.7609V43.4581C5.07795 41.9569 6.01269 39.9621 7.16541 39.001L10.0206 36.6214C11.1733 35.6602 13.2805 34.8807 14.7253 34.8807C16.1702 34.8807 17.3412 36.0978 17.3412 37.599V44.7611H17.3428V44.7609Z" fill="#00FF00"/>
</svg>
