<svg width="100" height="100" viewBox="0 0 100 100" fill="none" xmlns="http://www.w3.org/2000/svg">
<g clip-path="url(#clip0)">
<path d="M37.2392 33.3866C35.0457 33.0067 33.4685 32.0664 32.5953 30.4998C32.0221 29.4964 31.7416 28.1393 31.7416 26.4325H34.3786C34.4585 27.7924 34.6787 28.7863 35.0189 29.4126C35.6458 30.5361 36.7922 31.1663 38.4761 31.306V23.1786C36.319 22.7719 34.7256 22.092 33.6926 21.1383C32.6623 20.1818 32.1489 18.8616 32.1489 17.171C32.1489 15.6608 32.7026 14.3009 33.8088 13.0841C34.9223 11.874 36.4726 11.2572 38.4694 11.2371V9.25759H39.8829V11.208C41.8629 11.3482 43.3798 11.9282 44.4369 12.955C45.4934 13.9819 46.047 15.3351 46.1001 17.0224H43.4966C43.4301 16.2687 43.2234 15.6189 42.8831 15.0719C42.2563 14.0685 41.2629 13.5417 39.8896 13.492V20.7528C42.1931 21.3997 43.7603 22.0065 44.5832 22.5697C45.9303 23.5032 46.5968 24.8866 46.5968 26.7135C46.5968 29.3573 45.7369 31.2339 44.0201 32.3474C43.3167 32.8039 42.2931 33.1072 41.1232 33.3341C44.5536 33.4508 47.9673 34.0039 51.2608 34.9973C54.3811 31.8937 56.308 27.6002 56.308 22.8596C56.308 13.3953 48.6338 5.7244 39.1695 5.7244C29.7085 5.7244 22.0376 13.3953 22.0376 22.8596C22.0376 27.7465 24.0947 32.1474 27.3782 35.2677C30.5717 34.2202 33.892 33.5933 37.2392 33.3866Z" fill="#33C960"/>
<path d="M35.8261 19.3052C36.4825 19.8617 37.3698 20.2489 38.4832 20.4684V13.4612C37.1664 13.5143 36.2328 13.9082 35.6797 14.6513C35.1232 15.3982 34.8428 16.1782 34.8428 16.995C34.8428 17.9783 35.1758 18.7482 35.8261 19.3052Z" fill="#33C960"/>
<path d="M43.9197 27.4426C43.9197 26.199 43.4633 25.2559 42.5532 24.6089C42.0263 24.2324 41.1397 23.8754 39.896 23.539V31.3798C41.5961 31.2999 42.766 30.6797 43.4197 29.5165C43.7532 28.9193 43.9197 28.2259 43.9197 27.4426Z" fill="#33C960"/>
<path d="M97.9224 67.8565C100.016 65.6798 100.209 61.6293 99.8627 56.2189C97.4022 56.0524 93.7751 56.4625 92.4918 56.2189C89.3782 50.0218 84.9008 45.1846 78.5272 42.2509C78.7406 38.2037 79.2904 34.48 81.6341 32.553C75.9404 32.1631 71.1295 36.0102 68.0561 39.5373C65.3023 36.6734 61.2188 34.3967 56.4218 32.7933L53.435 38.107C44.554 35.0465 34.7997 35.0767 25.9689 38.2003L22.0709 32.9631C22.0608 32.9464 22.0441 32.9329 22.0307 32.9195C15.9403 34.9364 10.3293 38.097 5.97932 42.6437C3.14282 42.4274 3.4691 36.6768 7.14979 37.6003C1.15888 33.5201 -2.14134 44.7041 3.65291 46.1344C-1.17758 53.0315 -1.63404 67.8532 4.81947 73.2904C5.7631 81.4613 7.20957 89.1322 11.1802 94.2722H24.2213C23.8744 91.6251 23.5313 88.7981 23.8314 85.708C31.7486 87.5048 41.1565 88.0316 50.5974 87.2617C52.0573 89.682 53.4646 92.1425 55.2078 94.2756H68.1125C67.6393 90.8586 67.1292 87.2751 68.0561 83.771C71.1362 83.1715 87.1278 79.1081 97.9224 67.8565ZM80.1072 50.5447C81.8772 50.5447 83.3175 51.9817 83.3175 53.7517C83.3175 55.5216 81.8772 56.9586 80.1072 56.9586C78.3406 56.9586 76.9036 55.5216 76.9036 53.7517C76.9036 51.9817 78.34 50.5447 80.1072 50.5447Z" fill="#33C960"/>
</g>
<defs>
<clipPath id="clip0">
<rect width="100" height="100" fill="white"/>
</clipPath>
</defs>
</svg>
