<svg width="100" height="100" viewBox="0 0 100 100" fill="none" xmlns="http://www.w3.org/2000/svg">
<path d="M37.3466 85.3975H30.8746H32.4043V68.3228H16.2202V8.5778H12.6398C10.7487 8.5778 9.21582 10.1107 9.21582 12.0018V91.9035C9.21582 93.7946 10.7487 95.3275 12.6398 95.3275H46.3954L44.3381 91.7647L38.5567 88.4263L37.3466 87.7275V86.3303V85.3975ZM27.5635 73.1635V82.0864L18.6406 73.1635H27.5635Z" fill="#7D9E3F"/>
<path d="M67.2754 8.57776V44.7424L70.4348 46.5673H74.2798V12.0016C74.2798 10.1104 72.747 8.57756 70.8558 8.57756H67.2754V8.57776Z" fill="#7D9E3F"/>
<path d="M22.3295 16.2646H60.8532C62.7444 16.2646 63.8415 14.7947 63.3041 12.981L61.9988 8.57597L61.8261 7.99177C61.7905 7.87227 61.7342 7.75933 61.6857 7.6432C61.0146 5.99582 59.1943 4.70812 57.4276 4.70812H46.2989C46.2989 2.10732 44.19 0 41.5906 0C38.9896 0 36.8822 2.10732 36.8822 4.70832H25.7535C23.9866 4.70832 22.1681 5.99601 21.4954 7.6434C21.4486 7.75952 21.3922 7.87247 21.3566 7.99197L21.1824 8.57776L19.877 12.9828C19.3412 14.7947 20.4386 16.2646 22.3295 16.2646ZM41.5922 1.83954C43.1766 1.83954 44.4611 3.12386 44.4611 4.70852H38.7234C38.7218 3.12386 40.0077 1.83954 41.5922 1.83954Z" fill="#7D9E3F"/>
<path d="M62.7927 27.9597C60.0271 26.727 56.203 23.5208 52.8951 24.2759C47.3735 25.5378 42.4182 28.476 36.929 29.9539C33.5534 30.8623 31.2202 25.7909 27.7915 25.6087C25.1952 25.4715 22.3876 28.455 20.7289 30.0734C18.3554 32.3888 21.989 36.0194 24.3609 33.7054C28.2077 29.9523 31.517 35.866 36.0689 35.2222C40.0026 34.6656 43.517 33.2344 47.1976 31.7982C52.3464 29.7878 55.4139 30.2622 60.1996 32.3953C63.1976 33.7314 65.8131 29.3054 62.7927 27.9597Z" fill="#7D9E3F"/>
<path d="M58.5021 45.3812L62.231 43.2287L63.441 42.5299L63.9897 42.8461C63.8057 42.3685 63.4315 41.941 62.7907 41.6569C60.0252 40.4242 56.201 37.218 52.8931 37.9731C47.3715 39.235 42.4163 42.1732 36.9271 43.6511C33.5515 44.5594 31.2183 39.488 27.7895 39.3058C25.1933 39.1687 22.3856 42.1522 20.7269 43.7706C18.3534 46.0861 21.987 49.7166 24.359 47.4026C28.2058 43.6495 31.515 49.5631 36.0669 48.9194C40.0007 48.3628 43.5152 46.9316 47.1957 45.4954C51.7106 43.7323 54.6263 43.8807 58.5021 45.3812Z" fill="#7D9E3F"/>
<path d="M37.3471 58.9932V57.596L38.5572 56.8972L42.5088 54.6156C40.6821 55.3515 38.8378 56.0453 36.929 56.56C33.5535 57.4683 31.2202 52.3969 27.7915 52.2147C25.1952 52.0775 22.3876 55.0611 20.7289 56.6795C18.3554 58.995 21.989 62.6255 24.3609 60.3115C28.2077 56.5584 31.517 62.472 36.0689 61.8283C36.5062 61.7669 36.9209 61.659 37.3485 61.5766V58.9932H37.3471V58.9932Z" fill="#7D9E3F"/>
<path d="M87.1171 58.9932L80.7743 55.3304L77.1115 48.9876H74.2796H69.7859L67.2752 47.5387L63.4431 45.3266L63.4157 45.3427L61.7538 46.3011L57.0987 48.9892H49.7731L47.7384 52.5148L46.1119 55.3338L39.7673 58.9966V61.0233V66.3222L36.1045 72.665L39.7673 79.0078V85.399V86.3316L46.1119 89.9944L49.1921 95.3288L49.7745 96.3372H57.1001L63.4447 100L69.7892 96.3372H77.1148L80.7776 89.9944L87.1204 86.3316V79.006L90.7832 72.6614L87.1204 66.3168V58.9928H87.1171V58.9932ZM77.6036 67.2206L74.278 70.5462L67.2736 77.5506L60.9743 83.8499C60.4643 84.3599 59.7932 84.6066 59.1252 84.5987C58.4572 84.6084 57.7859 84.3614 57.2761 83.8499L49.281 75.8548C48.2789 74.8527 48.2789 73.228 49.281 72.2259L51.398 70.1089C52.4001 69.1068 54.0248 69.1068 55.0253 70.1089L59.1254 74.209L67.2754 66.059L71.8594 61.4749C72.5161 60.8183 73.4376 60.6003 74.2798 60.8054C74.7219 60.9136 75.1431 61.1297 75.4883 61.4749L77.6053 63.592C78.6056 64.5954 78.6056 66.2188 77.6036 67.2206Z" fill="#7D9E3F"/>
</svg>
